SplineFontDB: 3.0
FontName: ModeNine
FullName: ModeNine
FamilyName: ModeNine
Weight: Book
Copyright: (C) 2001 Graham H Freeman. (C) 1998 Andrew C. Bul+hac?k. Freely distributable.
Version: Macromedia Fontographer 4.1.2 15/8/98
ItalicAngle: 0
UnderlinePosition: -143
UnderlineWidth: 20
Ascent: 800
Descent: 200
InvalidEm: 0
sfntRevision: 0x00010000
LayerCount: 2
Layer: 0 1 "Back" 1
Layer: 1 1 "Fore" 0
XUID: [1021 625 963893922 10483804]
StyleMap: 0x0040
FSType: 1
OS2Version: 0
OS2_WeightWidthSlopeOnly: 0
OS2_UseTypoMetrics: 0
CreationTime: 985044764
ModificationTime: 1566317784
PfmFamily: 81
TTFWeight: 400
TTFWidth: 5
LineGap: 0
VLineGap: 0
Panose: 0 0 4 0 0 0 0 0 0 0
OS2TypoAscent: 800
OS2TypoAOffset: 0
OS2TypoDescent: -200
OS2TypoDOffset: 0
OS2TypoLinegap: 0
OS2WinAscent: 800
OS2WinAOffset: 0
OS2WinDescent: 200
OS2WinDOffset: 0
HheadAscent: 800
HheadAOffset: 0
HheadDescent: -200
HheadDOffset: 0
OS2SubXSize: 700
OS2SubYSize: 650
OS2SubXOff: 0
OS2SubYOff: 143
OS2SupXSize: 700
OS2SupYSize: 650
OS2SupXOff: 0
OS2SupYOff: 453
OS2StrikeYSize: 50
OS2StrikeYPos: 259
OS2Vendor: 'Alts'
OS2UnicodeRanges: 00000000.00000000.00000000.00000000
DEI: 91125
TtTable: prep
NPUSHB
 19
 12
 12
 11
 11
 10
 10
 9
 9
 8
 8
 3
 3
 2
 2
 1
 1
 0
 0
 1
SCANTYPE
PUSHW_1
 511
SCANCTRL
RCVT
ROUND[Grey]
WCVTP
RCVT
ROUND[Grey]
WCVTP
RCVT
ROUND[Grey]
WCVTP
RCVT
ROUND[Grey]
WCVTP
RCVT
ROUND[Grey]
WCVTP
RCVT
ROUND[Grey]
WCVTP
RCVT
ROUND[Grey]
WCVTP
RCVT
ROUND[Grey]
WCVTP
RCVT
ROUND[Grey]
WCVTP
PUSHB_4
 5
 4
 70
 0
CALL
PUSHB_4
 7
 6
 70
 0
CALL
PUSHB_2
 4
 4
RCVT
ROUND[Grey]
WCVTP
PUSHB_2
 6
 6
RCVT
ROUND[Grey]
WCVTP
EndTTInstrs
TtTable: fpgm
NPUSHB
 1
 0
FDEF
SROUND
RCVT
DUP
PUSHB_1
 3
CINDEX
RCVT
SWAP
SUB
ROUND[Grey]
RTG
SWAP
ROUND[Grey]
ADD
WCVTP
ENDF
EndTTInstrs
ShortTable: cvt  17
  -200
  0
  500
  700
  100
  200
  100
  300
  106
  141
  500
  300
  500
  23138
  23138
  2
  4
EndShort
ShortTable: maxp 16
  1
  0
  106
  60
  3
  0
  0
  2
  8
  64
  10
  0
  108
  205
  1
  1
EndShort

StartChar: .notdef
Encoding: 65536 -1 0
Width: 600
Flags: W
LayerCount: 2
Fore
SplineSet
75 0 m 1,0,-1
 75 800 l 1,1,-1
 525 800 l 1,2,-1
 525 0 l 1,3,-1
 75 0 l 1,0,-1
150 75 m 1,4,-1
 450 75 l 1,5,-1
 450 725 l 1,6,-1
 150 725 l 1,7,-1
 150 75 l 1,4,-1
EndSplineSet
EndChar

StartChar: exclam
Encoding: 33 33 4
Width: 600
Flags: W
LayerCount: 2
Fore
SplineSet
400 200 m 1,0,-1
 300 200 l 1,1,-1
 300 700 l 1,2,-1
 400 700 l 1,3,-1
 400 200 l 1,0,-1
400 0 m 1,4,-1
 300 0 l 1,5,-1
 300 100 l 1,6,-1
 400 100 l 1,7,-1
 400 0 l 1,4,-1
EndSplineSet
EndChar

StartChar: quotedbl
Encoding: 34 34 5
Width: 600
Flags: W
LayerCount: 2
Fore
SplineSet
500 400 m 1,0,-1
 400 400 l 1,1,-1
 400 700 l 1,2,-1
 500 700 l 1,3,-1
 500 400 l 1,0,-1
300 400 m 1,4,-1
 200 400 l 1,5,-1
 200 700 l 1,6,-1
 300 700 l 1,7,-1
 300 400 l 1,4,-1
EndSplineSet
EndChar

StartChar: numbersign
Encoding: 35 35 6
Width: 600
Flags: W
LayerCount: 2
Fore
SplineSet
600 200 m 1,0,-1
 500 200 l 1,1,-1
 500 0 l 1,2,-1
 400 0 l 1,3,-1
 400 200 l 1,4,-1
 300 200 l 1,5,-1
 300 0 l 1,6,-1
 200 0 l 1,7,-1
 200 200 l 1,8,-1
 100 200 l 1,9,-1
 100 300 l 1,10,-1
 200 300 l 1,11,-1
 200 400 l 1,12,-1
 100 400 l 1,13,-1
 100 500 l 1,14,-1
 200 500 l 1,15,-1
 200 700 l 1,16,-1
 300 700 l 1,17,-1
 300 500 l 1,18,-1
 400 500 l 1,19,-1
 400 700 l 1,20,-1
 500 700 l 1,21,-1
 500 500 l 1,22,-1
 600 500 l 1,23,-1
 600 400 l 1,24,-1
 500 400 l 1,25,-1
 500 300 l 1,26,-1
 600 300 l 1,27,-1
 600 200 l 1,0,-1
400 300 m 1,28,-1
 400 400 l 1,29,-1
 300 400 l 1,30,-1
 300 300 l 1,31,-1
 400 300 l 1,28,-1
EndSplineSet
EndChar

StartChar: dollar
Encoding: 36 36 7
Width: 600
Flags: W
LayerCount: 2
Fore
SplineSet
600 200 m 256,0,1
 600 125 600 125 537.5 62.5 c 128,-1,2
 475 0 475 0 400 0 c 2,3,-1
 300 0 l 2,4,5
 225 0 225 0 162.5 62.5 c 128,-1,6
 100 125 100 125 100 200 c 1,7,-1
 200 200 l 1,8,9
 200 163 200 163 231.5 131.5 c 128,-1,10
 263 100 263 100 300 100 c 1,11,-1
 300 300 l 1,12,13
 225 300 225 300 162.5 362.5 c 128,-1,14
 100 425 100 425 100 500 c 256,15,16
 100 575 100 575 162.5 637.5 c 128,-1,17
 225 700 225 700 300 700 c 2,18,-1
 400 700 l 2,19,20
 475 700 475 700 537.5 637.5 c 128,-1,21
 600 575 600 575 600 500 c 1,22,-1
 500 500 l 1,23,24
 500 538 500 538 469 569 c 128,-1,25
 438 600 438 600 400 600 c 1,26,-1
 400 400 l 1,27,28
 475 400 475 400 537.5 337.5 c 128,-1,29
 600 275 600 275 600 200 c 256,0,1
300 400 m 1,30,-1
 300 600 l 1,31,32
 263 600 263 600 231.5 569 c 128,-1,33
 200 538 200 538 200 500 c 0,34,35
 200 463 200 463 231.5 431.5 c 128,-1,36
 263 400 263 400 300 400 c 1,30,-1
500 200 m 0,37,38
 500 238 500 238 469 269 c 128,-1,39
 438 300 438 300 400 300 c 1,40,-1
 400 100 l 1,41,42
 438 100 438 100 469 131.5 c 128,-1,43
 500 163 500 163 500 200 c 0,37,38
EndSplineSet
EndChar

StartChar: percent
Encoding: 37 37 8
Width: 600
Flags: W
LayerCount: 2
Fore
SplineSet
300 600 m 256,0,1
 300 559 300 559 270.5 529.5 c 128,-1,2
 241 500 241 500 200 500 c 256,3,4
 159 500 159 500 129.5 529.5 c 128,-1,5
 100 559 100 559 100 600 c 256,6,7
 100 641 100 641 129.5 670.5 c 128,-1,8
 159 700 159 700 200 700 c 256,9,10
 241 700 241 700 270.5 670.5 c 128,-1,11
 300 641 300 641 300 600 c 256,0,1
600 525 m 1,12,-1
 175 100 l 1,13,-1
 100 100 l 1,14,-1
 100 175 l 1,15,-1
 525 600 l 1,16,-1
 600 600 l 1,17,-1
 600 525 l 1,12,-1
600 100 m 256,18,19
 600 59 600 59 570.5 29.5 c 128,-1,20
 541 0 541 0 500 0 c 256,21,22
 459 0 459 0 429.5 29.5 c 128,-1,23
 400 59 400 59 400 100 c 256,24,25
 400 141 400 141 429.5 170.5 c 128,-1,26
 459 200 459 200 500 200 c 256,27,28
 541 200 541 200 570.5 170.5 c 128,-1,29
 600 141 600 141 600 100 c 256,18,19
EndSplineSet
EndChar

StartChar: ampersand
Encoding: 38 38 9
Width: 600
Flags: W
LayerCount: 2
Fore
SplineSet
600 226 m 1,0,1
 557 177 557 177 526 145 c 1,2,-1
 600 75 l 1,3,-1
 600 0 l 1,4,-1
 525 0 l 1,5,-1
 453 77 l 1,6,7
 361 0 361 0 300 0 c 0,8,9
 226 0 226 0 163 63 c 128,-1,10
 100 126 100 126 100 200 c 0,11,12
 100 275 100 275 177 353 c 1,13,14
 132 397 132 397 120 417 c 0,15,16
 100 450 100 450 100 500 c 0,17,18
 100 546 100 546 116 576 c 0,19,20
 128 599 128 599 165 635 c 0,21,22
 217 688 217 688 250 688 c 256,23,24
 283 688 283 688 335 635 c 0,25,26
 372 599 372 599 384 576 c 0,27,28
 400 546 400 546 400 500 c 0,29,30
 400 426 400 426 323 348 c 1,31,-1
 450 221 l 1,32,-1
 525 300 l 1,33,-1
 600 300 l 1,34,-1
 600 226 l 1,0,1
300 500 m 256,35,36
 300 526 300 526 285 545 c 0,37,38
 283 548 283 548 250 579 c 1,39,40
 217 548 217 548 215 545 c 0,41,42
 200 526 200 526 200 500 c 256,43,44
 200 474 200 474 216.5 456 c 128,-1,45
 233 438 233 438 250 421 c 1,46,47
 262 433 262 433 286 458 c 0,48,49
 300 474 300 474 300 500 c 256,35,36
379 150 m 1,50,-1
 250 279 l 1,51,52
 237 267 237 267 214 242 c 0,53,54
 200 226 200 226 200 200 c 0,55,56
 200 167 200 167 233.5 133.5 c 128,-1,57
 267 100 267 100 300 100 c 0,58,59
 330 100 330 100 379 150 c 1,50,-1
EndSplineSet
EndChar

StartChar: quotesingle
Encoding: 39 39 10
Width: 600
Flags: W
LayerCount: 2
Fore
SplineSet
400 400 m 1,0,-1
 300 400 l 1,1,-1
 300 700 l 1,2,-1
 400 700 l 1,3,-1
 400 400 l 1,0,-1
EndSplineSet
EndChar

StartChar: parenleft
Encoding: 40 40 11
Width: 600
Flags: W
LayerCount: 2
Fore
SplineSet
500 0 m 1,0,-1
 425 0 l 1,1,-1
 300 125 l 2,2,3
 236 189 236 189 220 223 c 0,4,5
 200 265 200 265 200 350 c 256,6,7
 200 435 200 435 220 477 c 0,8,9
 236 511 236 511 300 575 c 2,10,-1
 425 700 l 1,11,-1
 500 700 l 1,12,-1
 500 625 l 1,13,-1
 375 500 l 2,14,15
 327 452 327 452 317 435 c 0,16,17
 300 406 300 406 300 350 c 256,18,19
 300 294 300 294 317 265 c 0,20,21
 327 248 327 248 375 200 c 2,22,-1
 500 75 l 1,23,-1
 500 0 l 1,0,-1
EndSplineSet
EndChar

StartChar: parenright
Encoding: 41 41 12
Width: 600
Flags: W
LayerCount: 2
Fore
SplineSet
500 350 m 256,0,1
 500 265 500 265 480 223 c 0,2,3
 464 189 464 189 400 125 c 2,4,-1
 275 0 l 1,5,-1
 200 0 l 1,6,-1
 200 75 l 1,7,-1
 325 200 l 2,8,9
 373 248 373 248 383 265 c 0,10,11
 400 294 400 294 400 350 c 256,12,13
 400 406 400 406 383 435 c 0,14,15
 373 452 373 452 325 500 c 2,16,-1
 200 625 l 1,17,-1
 200 700 l 1,18,-1
 275 700 l 1,19,-1
 400 575 l 2,20,21
 464 511 464 511 480 477 c 0,22,23
 500 435 500 435 500 350 c 256,0,1
EndSplineSet
EndChar

StartChar: asterisk
Encoding: 42 42 13
Width: 600
Flags: W
LayerCount: 2
Fore
SplineSet
600 100 m 1,0,-1
 525 100 l 1,1,-1
 400 225 l 1,2,-1
 400 0 l 1,3,-1
 300 0 l 1,4,-1
 300 225 l 1,5,-1
 175 100 l 1,6,-1
 100 100 l 1,7,-1
 100 175 l 1,8,-1
 275 350 l 1,9,-1
 100 525 l 1,10,-1
 100 600 l 1,11,-1
 175 600 l 1,12,-1
 300 475 l 1,13,-1
 300 700 l 1,14,-1
 400 700 l 1,15,-1
 400 475 l 1,16,-1
 525 600 l 1,17,-1
 600 600 l 1,18,-1
 600 525 l 1,19,-1
 425 350 l 1,20,-1
 600 175 l 1,21,-1
 600 100 l 1,0,-1
EndSplineSet
EndChar

StartChar: plus
Encoding: 43 43 14
Width: 500
Flags: W
LayerCount: 2
Fore
SplineSet
500 300 m 1,0,-1
 300 300 l 1,1,-1
 300 100 l 1,2,-1
 200 100 l 1,3,-1
 200 300 l 1,4,-1
 0 300 l 1,5,-1
 0 400 l 1,6,-1
 200 400 l 1,7,-1
 200 600 l 1,8,-1
 300 600 l 1,9,-1
 300 400 l 1,10,-1
 500 400 l 1,11,-1
 500 300 l 1,0,-1
EndSplineSet
EndChar

StartChar: comma
Encoding: 44 44 15
Width: 200
Flags: W
LayerCount: 2
Fore
SplineSet
200 100 m 2,0,1
 200 25 200 25 137.5 -37.5 c 128,-1,2
 75 -100 75 -100 0 -100 c 1,3,-1
 0 0 l 1,4,5
 38 0 38 0 69 31 c 128,-1,6
 100 62 100 62 100 100 c 2,7,-1
 100 250 l 1,8,-1
 200 250 l 1,9,-1
 200 100 l 2,0,1
EndSplineSet
EndChar

StartChar: hyphen
Encoding: 45 45 16
AltUni2: 002010.ffffffff.0
Width: 500
Flags: W
LayerCount: 2
Fore
SplineSet
500 300 m 1,0,-1
 0 300 l 1,1,-1
 0 400 l 1,2,-1
 500 400 l 1,3,-1
 500 300 l 1,0,-1
EndSplineSet
EndChar

StartChar: period
Encoding: 46 46 17
Width: 100
Flags: W
LayerCount: 2
Fore
SplineSet
100 0 m 1,0,-1
 0 0 l 1,1,-1
 0 100 l 1,2,-1
 100 100 l 1,3,-1
 100 0 l 1,0,-1
EndSplineSet
EndChar

StartChar: slash
Encoding: 47 47 18
Width: 500
Flags: W
LayerCount: 2
Fore
SplineSet
500 500 m 1,0,-1
 50 50 l 1,1,-1
 0 200 l 1,2,-1
 450 650 l 1,3,-1
 500 500 l 1,0,-1
EndSplineSet
EndChar

StartChar: zero
Encoding: 48 48 19
Width: 500
Flags: W
LayerCount: 2
Fore
SplineSet
500 200 m 2,0,1
 500 125 500 125 437.5 62.5 c 128,-1,2
 375 0 375 0 300 0 c 2,3,-1
 200 0 l 2,4,5
 125 0 125 0 62.5 62.5 c 128,-1,6
 0 125 0 125 0 200 c 2,7,-1
 0 500 l 2,8,9
 0 575 0 575 62.5 637.5 c 128,-1,10
 125 700 125 700 200 700 c 2,11,-1
 300 700 l 2,12,13
 375 700 375 700 437.5 637.5 c 128,-1,14
 500 575 500 575 500 500 c 2,15,-1
 500 200 l 2,0,1
400 200 m 2,16,-1
 400 500 l 2,17,18
 400 538 400 538 369 569 c 128,-1,19
 338 600 338 600 300 600 c 2,20,-1
 200 600 l 2,21,22
 163 600 163 600 131.5 569 c 128,-1,23
 100 538 100 538 100 500 c 2,24,-1
 100 200 l 2,25,26
 100 163 100 163 131.5 131.5 c 128,-1,27
 163 100 163 100 200 100 c 2,28,-1
 300 100 l 2,29,30
 338 100 338 100 369 131.5 c 128,-1,31
 400 163 400 163 400 200 c 2,16,-1
EndSplineSet
EndChar

StartChar: one
Encoding: 49 49 20
Width: 300
Flags: W
LayerCount: 2
Fore
SplineSet
300 0 m 1,0,-1
 0 0 l 1,1,-1
 0 100 l 1,2,-1
 100 100 l 1,3,-1
 100 532 l 1,4,5
 51 500 51 500 0 500 c 1,6,-1
 0 600 l 1,7,8
 38 600 38 600 69 631.5 c 128,-1,9
 100 663 100 663 100 700 c 1,10,-1
 200 700 l 1,11,-1
 200 100 l 1,12,-1
 300 100 l 1,13,-1
 300 0 l 1,0,-1
EndSplineSet
EndChar

StartChar: two
Encoding: 50 50 21
Width: 500
Flags: W
LayerCount: 2
Fore
SplineSet
500 0 m 1,0,-1
 0 0 l 1,1,-1
 0 200 l 2,2,3
 0 275 0 275 62.5 337.5 c 128,-1,4
 125 400 125 400 200 400 c 2,5,-1
 300 400 l 2,6,7
 338 400 338 400 369 431 c 128,-1,8
 400 462 400 462 400 500 c 256,9,10
 400 538 400 538 369 569 c 128,-1,11
 338 600 338 600 300 600 c 2,12,-1
 200 600 l 2,13,14
 162 600 162 600 131 569 c 128,-1,15
 100 538 100 538 100 500 c 1,16,-1
 0 500 l 1,17,18
 0 575 0 575 62.5 637.5 c 128,-1,19
 125 700 125 700 200 700 c 2,20,-1
 300 700 l 2,21,22
 375 700 375 700 437.5 637.5 c 128,-1,23
 500 575 500 575 500 500 c 256,24,25
 500 425 500 425 437.5 362.5 c 128,-1,26
 375 300 375 300 300 300 c 2,27,-1
 200 300 l 2,28,29
 162 300 162 300 131 269 c 128,-1,30
 100 238 100 238 100 200 c 2,31,-1
 100 100 l 1,32,-1
 500 100 l 1,33,-1
 500 0 l 1,0,-1
EndSplineSet
EndChar

StartChar: three
Encoding: 51 51 22
Width: 500
Flags: W
LayerCount: 2
Fore
SplineSet
500 200 m 0,0,1
 500 125 500 125 437.5 62.5 c 128,-1,2
 375 0 375 0 300 0 c 2,3,-1
 200 0 l 2,4,5
 125 0 125 0 62.5 62.5 c 128,-1,6
 0 125 0 125 0 200 c 1,7,-1
 100 200 l 1,8,9
 100 162 100 162 131 131 c 128,-1,10
 162 100 162 100 200 100 c 2,11,-1
 300 100 l 2,12,13
 338 100 338 100 369 131 c 128,-1,14
 400 162 400 162 400 200 c 256,15,16
 400 238 400 238 369 269 c 128,-1,17
 338 300 338 300 300 300 c 2,18,-1
 100 300 l 1,19,-1
 400 600 l 1,20,-1
 0 600 l 1,21,-1
 0 700 l 1,22,-1
 500 700 l 1,23,-1
 500 550 l 1,24,-1
 344 394 l 1,25,26
 407 376 407 376 453.5 320 c 128,-1,27
 500 264 500 264 500 200 c 0,0,1
EndSplineSet
EndChar

StartChar: four
Encoding: 52 52 23
Width: 500
Flags: W
LayerCount: 2
Fore
SplineSet
500 200 m 1,0,-1
 400 200 l 1,1,-1
 400 0 l 1,2,-1
 300 0 l 1,3,-1
 300 200 l 1,4,-1
 0 200 l 1,5,-1
 0 400 l 1,6,-1
 300 700 l 1,7,-1
 400 700 l 1,8,-1
 400 300 l 1,9,-1
 500 300 l 1,10,-1
 500 200 l 1,0,-1
300 300 m 1,11,-1
 300 550 l 1,12,-1
 100 350 l 1,13,-1
 100 300 l 1,14,-1
 300 300 l 1,11,-1
EndSplineSet
EndChar

StartChar: five
Encoding: 53 53 24
Width: 500
Flags: W
LayerCount: 2
Fore
SplineSet
500 200 m 2,0,1
 500 125 500 125 437.5 62.5 c 128,-1,2
 375 0 375 0 300 0 c 2,3,-1
 200 0 l 2,4,5
 125 0 125 0 62.5 62.5 c 128,-1,6
 0 125 0 125 0 200 c 1,7,-1
 100 200 l 1,8,9
 100 162 100 162 131 131 c 128,-1,10
 162 100 162 100 200 100 c 2,11,-1
 300 100 l 2,12,13
 338 100 338 100 369 131 c 128,-1,14
 400 162 400 162 400 200 c 2,15,-1
 400 300 l 2,16,17
 400 338 400 338 369 369 c 128,-1,18
 338 400 338 400 300 400 c 2,19,-1
 0 400 l 1,20,-1
 0 700 l 1,21,-1
 500 700 l 1,22,-1
 500 600 l 1,23,-1
 100 600 l 1,24,-1
 100 500 l 1,25,-1
 300 500 l 2,26,27
 375 500 375 500 437.5 437.5 c 128,-1,28
 500 375 500 375 500 300 c 2,29,-1
 500 200 l 2,0,1
EndSplineSet
EndChar

StartChar: six
Encoding: 54 54 25
Width: 500
Flags: W
LayerCount: 2
Fore
SplineSet
500 200 m 256,0,1
 500 125 500 125 437.5 62.5 c 128,-1,2
 375 0 375 0 300 0 c 2,3,-1
 200 0 l 2,4,5
 125 0 125 0 62.5 62.5 c 128,-1,6
 0 125 0 125 0 200 c 2,7,-1
 0 400 l 2,8,9
 0 513 0 513 93.5 606.5 c 128,-1,10
 187 700 187 700 300 700 c 2,11,-1
 400 700 l 1,12,-1
 400 600 l 1,13,-1
 300 600 l 2,14,15
 225 600 225 600 162.5 537.5 c 128,-1,16
 100 475 100 475 100 400 c 1,17,-1
 300 400 l 2,18,19
 375 400 375 400 437.5 337.5 c 128,-1,20
 500 275 500 275 500 200 c 256,0,1
400 200 m 256,21,22
 400 238 400 238 369 269 c 128,-1,23
 338 300 338 300 300 300 c 2,24,-1
 100 300 l 1,25,-1
 100 200 l 2,26,27
 100 162 100 162 131 131 c 128,-1,28
 162 100 162 100 200 100 c 2,29,-1
 300 100 l 2,30,31
 338 100 338 100 369 131 c 128,-1,32
 400 162 400 162 400 200 c 256,21,22
EndSplineSet
EndChar

StartChar: seven
Encoding: 55 55 26
Width: 500
Flags: W
LayerCount: 2
Fore
SplineSet
500 600 m 2,0,1
 500 537 500 537 422 463 c 0,2,3
 350 400 350 400 278 337 c 0,4,5
 200 263 200 263 200 200 c 2,6,-1
 200 0 l 1,7,-1
 100 0 l 1,8,-1
 100 200 l 2,9,10
 100 286 100 286 177 370 c 0,11,12
 199 393 199 393 321 495 c 0,13,14
 399 560 399 560 400 600 c 1,15,-1
 0 600 l 1,16,-1
 0 700 l 1,17,-1
 500 700 l 1,18,-1
 500 600 l 2,0,1
EndSplineSet
EndChar

StartChar: eight
Encoding: 56 56 27
Width: 500
Flags: W
LayerCount: 2
Fore
SplineSet
500 200 m 0,0,1
 500 125 500 125 437.5 62.5 c 128,-1,2
 375 0 375 0 300 0 c 2,3,-1
 200 0 l 2,4,5
 125 0 125 0 62.5 62.5 c 128,-1,6
 0 125 0 125 0 200 c 0,7,8
 0 285 0 285 76 350 c 1,9,10
 0 415 0 415 0 500 c 0,11,12
 0 575 0 575 62.5 637.5 c 128,-1,13
 125 700 125 700 200 700 c 2,14,-1
 300 700 l 2,15,16
 375 700 375 700 437.5 637.5 c 128,-1,17
 500 575 500 575 500 500 c 0,18,19
 500 415 500 415 424 350 c 1,20,21
 500 285 500 285 500 200 c 0,0,1
400 500 m 256,22,23
 400 538 400 538 369 569 c 128,-1,24
 338 600 338 600 300 600 c 2,25,-1
 200 600 l 2,26,27
 162 600 162 600 131 569 c 128,-1,28
 100 538 100 538 100 500 c 256,29,30
 100 462 100 462 131 431 c 128,-1,31
 162 400 162 400 200 400 c 2,32,-1
 300 400 l 2,33,34
 338 400 338 400 369 431 c 128,-1,35
 400 462 400 462 400 500 c 256,22,23
400 200 m 256,36,37
 400 238 400 238 369 269 c 128,-1,38
 338 300 338 300 300 300 c 2,39,-1
 200 300 l 2,40,41
 162 300 162 300 131 269 c 128,-1,42
 100 238 100 238 100 200 c 256,43,44
 100 162 100 162 131 131 c 128,-1,45
 162 100 162 100 200 100 c 2,46,-1
 300 100 l 2,47,48
 338 100 338 100 369 131 c 128,-1,49
 400 162 400 162 400 200 c 256,36,37
EndSplineSet
EndChar

StartChar: nine
Encoding: 57 57 28
Width: 500
Flags: W
LayerCount: 2
Fore
SplineSet
500 300 m 2,0,1
 500 187 500 187 406.5 93.5 c 128,-1,2
 313 0 313 0 200 0 c 2,3,-1
 100 0 l 1,4,-1
 100 100 l 1,5,-1
 200 100 l 2,6,7
 275 100 275 100 337.5 162.5 c 128,-1,8
 400 225 400 225 400 300 c 1,9,-1
 200 300 l 2,10,11
 125 300 125 300 62.5 362.5 c 128,-1,12
 0 425 0 425 0 500 c 256,13,14
 0 575 0 575 62.5 637.5 c 128,-1,15
 125 700 125 700 200 700 c 2,16,-1
 300 700 l 2,17,18
 375 700 375 700 437.5 637.5 c 128,-1,19
 500 575 500 575 500 500 c 2,20,-1
 500 300 l 2,0,1
400 400 m 1,21,-1
 400 500 l 2,22,23
 400 538 400 538 369 569 c 128,-1,24
 338 600 338 600 300 600 c 2,25,-1
 200 600 l 2,26,27
 162 600 162 600 131 569 c 128,-1,28
 100 538 100 538 100 500 c 256,29,30
 100 462 100 462 131 431 c 128,-1,31
 162 400 162 400 200 400 c 2,32,-1
 400 400 l 1,21,-1
EndSplineSet
EndChar

StartChar: colon
Encoding: 58 58 29
Width: 600
Flags: W
LayerCount: 2
Fore
SplineSet
400 400 m 1,0,-1
 300 400 l 1,1,-1
 300 500 l 1,2,-1
 400 500 l 1,3,-1
 400 400 l 1,0,-1
400 100 m 1,4,-1
 300 100 l 1,5,-1
 300 200 l 1,6,-1
 400 200 l 1,7,-1
 400 100 l 1,4,-1
EndSplineSet
EndChar

StartChar: semicolon
Encoding: 59 59 30
Width: 600
Flags: W
LayerCount: 2
Fore
SplineSet
400 400 m 1,0,-1
 300 400 l 1,1,-1
 300 500 l 1,2,-1
 400 500 l 1,3,-1
 400 400 l 1,0,-1
400 100 m 2,4,5
 400 25 400 25 337.5 -37.5 c 128,-1,6
 275 -100 275 -100 200 -100 c 1,7,-1
 200 0 l 1,8,9
 238 0 238 0 269 31 c 128,-1,10
 300 62 300 62 300 100 c 2,11,-1
 300 200 l 1,12,-1
 400 200 l 1,13,-1
 400 100 l 2,4,5
EndSplineSet
EndChar

StartChar: less
Encoding: 60 60 31
Width: 600
Flags: W
LayerCount: 2
Fore
SplineSet
500 100 m 1,0,-1
 450 0 l 1,1,-1
 100 350 l 1,2,-1
 450 700 l 1,3,-1
 500 600 l 1,4,-1
 250 350 l 1,5,-1
 500 100 l 1,0,-1
EndSplineSet
EndChar

StartChar: equal
Encoding: 61 61 32
Width: 600
Flags: W
LayerCount: 2
Fore
SplineSet
600 400 m 1,0,-1
 100 400 l 1,1,-1
 100 500 l 1,2,-1
 600 500 l 1,3,-1
 600 400 l 1,0,-1
600 100 m 1,4,-1
 100 100 l 1,5,-1
 100 200 l 1,6,-1
 600 200 l 1,7,-1
 600 100 l 1,4,-1
EndSplineSet
EndChar

StartChar: greater
Encoding: 62 62 33
Width: 600
Flags: W
LayerCount: 2
Fore
SplineSet
600 350 m 1,0,-1
 250 0 l 1,1,-1
 200 100 l 1,2,-1
 450 350 l 1,3,-1
 200 600 l 1,4,-1
 250 700 l 1,5,-1
 600 350 l 1,0,-1
EndSplineSet
EndChar

StartChar: question
Encoding: 63 63 34
Width: 600
Flags: W
LayerCount: 2
Fore
SplineSet
600 500 m 0,0,1
 600 435 600 435 548 380 c 0,2,3
 522 352 522 352 452 304 c 0,4,5
 400 268 400 268 400 250 c 2,6,-1
 400 200 l 1,7,-1
 300 200 l 1,8,-1
 300 250 l 2,9,10
 300 292 300 292 352 337 c 0,11,12
 400 375 400 375 448 413 c 0,13,14
 500 458 500 458 500 500 c 0,15,16
 500 538 500 538 469 569 c 128,-1,17
 438 600 438 600 400 600 c 2,18,-1
 300 600 l 2,19,20
 262 600 262 600 231 569 c 128,-1,21
 200 538 200 538 200 500 c 1,22,-1
 100 500 l 1,23,24
 100 575 100 575 162.5 637.5 c 128,-1,25
 225 700 225 700 300 700 c 2,26,-1
 400 700 l 2,27,28
 475 700 475 700 537.5 637.5 c 128,-1,29
 600 575 600 575 600 500 c 0,0,1
400 0 m 1,30,-1
 300 0 l 1,31,-1
 300 100 l 1,32,-1
 400 100 l 1,33,-1
 400 0 l 1,30,-1
EndSplineSet
EndChar

StartChar: at
Encoding: 64 64 35
Width: 600
Flags: W
LayerCount: 2
Fore
SplineSet
600 350 m 2,0,1
 600 294 600 294 553 247 c 128,-1,2
 506 200 506 200 450 200 c 256,3,4
 394 200 394 200 347 247 c 128,-1,5
 300 294 300 294 300 350 c 0,6,7
 300 421 300 421 347 463 c 0,8,9
 389 500 389 500 450 500 c 2,10,-1
 500 500 l 1,11,12
 500 538 500 538 469 569 c 128,-1,13
 438 600 438 600 400 600 c 2,14,-1
 300 600 l 2,15,16
 263 600 263 600 231.5 569 c 128,-1,17
 200 538 200 538 200 500 c 2,18,-1
 200 200 l 2,19,20
 200 163 200 163 231.5 131.5 c 128,-1,21
 263 100 263 100 300 100 c 2,22,-1
 500 100 l 1,23,-1
 500 0 l 1,24,-1
 300 0 l 2,25,26
 225 0 225 0 162.5 62.5 c 128,-1,27
 100 125 100 125 100 200 c 2,28,-1
 100 500 l 2,29,30
 100 575 100 575 162.5 637.5 c 128,-1,31
 225 700 225 700 300 700 c 2,32,-1
 400 700 l 2,33,34
 475 700 475 700 537.5 637.5 c 128,-1,35
 600 575 600 575 600 500 c 2,36,-1
 600 350 l 2,0,1
500 350 m 2,37,-1
 500 400 l 1,38,-1
 450 400 l 2,39,40
 431 400 431 400 415.5 384.5 c 128,-1,41
 400 369 400 369 400 350 c 256,42,43
 400 331 400 331 415.5 315.5 c 128,-1,44
 431 300 431 300 450 300 c 256,45,46
 469 300 469 300 484.5 315.5 c 128,-1,47
 500 331 500 331 500 350 c 2,37,-1
EndSplineSet
EndChar

StartChar: A
Encoding: 65 65 36
Width: 600
Flags: W
LayerCount: 2
Fore
SplineSet
600 0 m 1,0,-1
 500 0 l 1,1,-1
 500 200 l 1,2,-1
 200 200 l 1,3,-1
 200 0 l 1,4,-1
 100 0 l 1,5,-1
 100 500 l 1,6,-1
 300 700 l 1,7,-1
 400 700 l 1,8,-1
 600 500 l 1,9,-1
 600 0 l 1,0,-1
500 300 m 1,10,-1
 500 450 l 1,11,-1
 350 600 l 1,12,-1
 200 450 l 1,13,-1
 200 300 l 1,14,-1
 500 300 l 1,10,-1
EndSplineSet
EndChar

StartChar: B
Encoding: 66 66 37
Width: 600
Flags: W
LayerCount: 2
Fore
SplineSet
600 200 m 0,0,1
 600 125 600 125 537.5 62.5 c 128,-1,2
 475 0 475 0 400 0 c 2,3,-1
 100 0 l 1,4,-1
 100 700 l 1,5,-1
 400 700 l 2,6,7
 475 700 475 700 537.5 637.5 c 128,-1,8
 600 575 600 575 600 500 c 0,9,10
 600 415 600 415 524 350 c 1,11,12
 600 285 600 285 600 200 c 0,0,1
500 500 m 256,13,14
 500 538 500 538 469 569 c 128,-1,15
 438 600 438 600 400 600 c 2,16,-1
 200 600 l 1,17,-1
 200 400 l 1,18,-1
 400 400 l 2,19,20
 438 400 438 400 469 431 c 128,-1,21
 500 462 500 462 500 500 c 256,13,14
500 200 m 256,22,23
 500 238 500 238 469 269 c 128,-1,24
 438 300 438 300 400 300 c 2,25,-1
 200 300 l 1,26,-1
 200 100 l 1,27,-1
 400 100 l 2,28,29
 438 100 438 100 469 131 c 128,-1,30
 500 162 500 162 500 200 c 256,22,23
EndSplineSet
EndChar

StartChar: C
Encoding: 67 67 38
Width: 600
Flags: W
LayerCount: 2
Fore
SplineSet
600 200 m 1,0,1
 600 125 600 125 537.5 62.5 c 128,-1,2
 475 0 475 0 400 0 c 2,3,-1
 300 0 l 2,4,5
 225 0 225 0 162.5 62.5 c 128,-1,6
 100 125 100 125 100 200 c 2,7,-1
 100 500 l 2,8,9
 100 575 100 575 162.5 637.5 c 128,-1,10
 225 700 225 700 300 700 c 2,11,-1
 400 700 l 2,12,13
 475 700 475 700 537.5 637.5 c 128,-1,14
 600 575 600 575 600 500 c 1,15,-1
 500 500 l 1,16,17
 500 538 500 538 469 569 c 128,-1,18
 438 600 438 600 400 600 c 2,19,-1
 300 600 l 2,20,21
 263 600 263 600 231.5 569 c 128,-1,22
 200 538 200 538 200 500 c 2,23,-1
 200 200 l 2,24,25
 200 163 200 163 231.5 131.5 c 128,-1,26
 263 100 263 100 300 100 c 2,27,-1
 400 100 l 2,28,29
 438 100 438 100 469 131.5 c 128,-1,30
 500 163 500 163 500 200 c 1,31,-1
 600 200 l 1,0,1
EndSplineSet
EndChar

StartChar: D
Encoding: 68 68 39
Width: 600
Flags: W
LayerCount: 2
Fore
SplineSet
600 200 m 2,0,1
 600 125 600 125 537.5 62.5 c 128,-1,2
 475 0 475 0 400 0 c 2,3,-1
 100 0 l 1,4,-1
 100 700 l 1,5,-1
 400 700 l 2,6,7
 475 700 475 700 537.5 637.5 c 128,-1,8
 600 575 600 575 600 500 c 2,9,-1
 600 200 l 2,0,1
500 200 m 2,10,-1
 500 500 l 2,11,12
 500 538 500 538 469 569 c 128,-1,13
 438 600 438 600 400 600 c 2,14,-1
 200 600 l 1,15,-1
 200 100 l 1,16,-1
 400 100 l 2,17,18
 438 100 438 100 469 131.5 c 128,-1,19
 500 163 500 163 500 200 c 2,10,-1
EndSplineSet
EndChar

StartChar: E
Encoding: 69 69 40
Width: 600
Flags: W
LayerCount: 2
Fore
SplineSet
600 0 m 1,0,-1
 100 0 l 1,1,-1
 100 700 l 1,2,-1
 600 700 l 1,3,-1
 600 600 l 1,4,-1
 200 600 l 1,5,-1
 200 396 l 1,6,-1
 500 396 l 1,7,-1
 500 300 l 1,8,-1
 200 300 l 1,9,-1
 200 100 l 1,10,-1
 600 100 l 1,11,-1
 600 0 l 1,0,-1
EndSplineSet
EndChar

StartChar: F
Encoding: 70 70 41
Width: 600
Flags: W
LayerCount: 2
Fore
SplineSet
600 600 m 1,0,-1
 200 600 l 1,1,-1
 200 396 l 1,2,-1
 500 396 l 1,3,-1
 500 300 l 1,4,-1
 200 300 l 1,5,-1
 200 0 l 1,6,-1
 100 0 l 1,7,-1
 100 700 l 1,8,-1
 600 700 l 1,9,-1
 600 600 l 1,0,-1
EndSplineSet
EndChar

StartChar: G
Encoding: 71 71 42
Width: 600
Flags: W
LayerCount: 2
Fore
SplineSet
600 0 m 1,0,-1
 300 0 l 2,1,2
 225 0 225 0 162.5 62.5 c 128,-1,3
 100 125 100 125 100 200 c 2,4,-1
 100 500 l 2,5,6
 100 575 100 575 162.5 637.5 c 128,-1,7
 225 700 225 700 300 700 c 2,8,-1
 400 700 l 2,9,10
 475 700 475 700 537.5 637.5 c 128,-1,11
 600 575 600 575 600 500 c 1,12,-1
 500 500 l 1,13,14
 500 538 500 538 469 569 c 128,-1,15
 438 600 438 600 400 600 c 2,16,-1
 300 600 l 2,17,18
 263 600 263 600 231.5 569 c 128,-1,19
 200 538 200 538 200 500 c 2,20,-1
 200 200 l 2,21,22
 200 163 200 163 231.5 131.5 c 128,-1,23
 263 100 263 100 300 100 c 2,24,-1
 500 100 l 1,25,-1
 500 200 l 1,26,-1
 400 200 l 1,27,-1
 400 300 l 1,28,-1
 600 300 l 1,29,-1
 600 0 l 1,0,-1
EndSplineSet
EndChar

StartChar: H
Encoding: 72 72 43
Width: 600
Flags: W
LayerCount: 2
Fore
SplineSet
600 0 m 1,0,-1
 500 0 l 1,1,-1
 500 300 l 1,2,-1
 200 300 l 1,3,-1
 200 0 l 1,4,-1
 100 0 l 1,5,-1
 100 700 l 1,6,-1
 200 700 l 1,7,-1
 200 400 l 1,8,-1
 500 400 l 1,9,-1
 500 700 l 1,10,-1
 600 700 l 1,11,-1
 600 0 l 1,0,-1
EndSplineSet
EndChar

StartChar: I
Encoding: 73 73 44
Width: 600
Flags: W
LayerCount: 2
Fore
SplineSet
500 0 m 1,0,-1
 200 0 l 1,1,-1
 200 100 l 1,2,-1
 300 100 l 1,3,-1
 300 600 l 1,4,-1
 200 600 l 1,5,-1
 200 700 l 1,6,-1
 500 700 l 1,7,-1
 500 600 l 1,8,-1
 400 600 l 1,9,-1
 400 100 l 1,10,-1
 500 100 l 1,11,-1
 500 0 l 1,0,-1
EndSplineSet
EndChar

StartChar: J
Encoding: 74 74 45
Width: 600
Flags: W
LayerCount: 2
Fore
SplineSet
600 200 m 2,0,1
 600 125 600 125 537.5 62.5 c 128,-1,2
 475 0 475 0 400 0 c 2,3,-1
 300 0 l 2,4,5
 225 0 225 0 162.5 62.5 c 128,-1,6
 100 125 100 125 100 200 c 1,7,-1
 200 200 l 1,8,9
 200 163 200 163 231.5 131.5 c 128,-1,10
 263 100 263 100 300 100 c 2,11,-1
 400 100 l 2,12,13
 438 100 438 100 469 131.5 c 128,-1,14
 500 163 500 163 500 200 c 2,15,-1
 500 700 l 1,16,-1
 600 700 l 1,17,-1
 600 200 l 2,0,1
EndSplineSet
EndChar

StartChar: K
Encoding: 75 75 46
Width: 600
Flags: W
LayerCount: 2
Fore
SplineSet
600 50 m 1,0,-1
 600 0 l 1,1,-1
 500 0 l 1,2,-1
 200 300 l 1,3,-1
 200 0 l 1,4,-1
 100 0 l 1,5,-1
 100 700 l 1,6,-1
 200 700 l 1,7,-1
 200 400 l 1,8,-1
 500 700 l 1,9,-1
 600 700 l 1,10,-1
 600 650 l 1,11,-1
 300 350 l 1,12,-1
 600 50 l 1,0,-1
EndSplineSet
EndChar

StartChar: L
Encoding: 76 76 47
Width: 600
Flags: W
LayerCount: 2
Fore
SplineSet
600 0 m 1,0,-1
 100 0 l 1,1,-1
 100 700 l 1,2,-1
 200 700 l 1,3,-1
 200 100 l 1,4,-1
 600 100 l 1,5,-1
 600 0 l 1,0,-1
EndSplineSet
EndChar

StartChar: M
Encoding: 77 77 48
Width: 600
Flags: W
LayerCount: 2
Fore
SplineSet
600 0 m 1,0,-1
 500 0 l 1,1,-1
 500 500 l 1,2,-1
 350 350 l 1,3,-1
 200 500 l 1,4,-1
 200 0 l 1,5,-1
 100 0 l 1,6,-1
 100 700 l 1,7,-1
 150 700 l 1,8,-1
 350 500 l 1,9,-1
 550 700 l 1,10,-1
 600 700 l 1,11,-1
 600 0 l 1,0,-1
EndSplineSet
EndChar

StartChar: N
Encoding: 78 78 49
Width: 600
Flags: W
LayerCount: 2
Fore
SplineSet
600 0 m 1,0,-1
 500 0 l 1,1,-1
 500 150 l 1,2,-1
 200 450 l 1,3,-1
 200 0 l 1,4,-1
 100 0 l 1,5,-1
 100 700 l 1,6,-1
 200 700 l 1,7,-1
 200 600 l 1,8,-1
 500 300 l 1,9,-1
 500 700 l 1,10,-1
 600 700 l 1,11,-1
 600 0 l 1,0,-1
EndSplineSet
EndChar

StartChar: O
Encoding: 79 79 50
Width: 600
Flags: W
LayerCount: 2
Fore
SplineSet
600 200 m 2,0,1
 600 125 600 125 537.5 62.5 c 128,-1,2
 475 0 475 0 400 0 c 2,3,-1
 300 0 l 2,4,5
 225 0 225 0 162.5 62.5 c 128,-1,6
 100 125 100 125 100 200 c 2,7,-1
 100 500 l 2,8,9
 100 575 100 575 162.5 637.5 c 128,-1,10
 225 700 225 700 300 700 c 2,11,-1
 400 700 l 2,12,13
 475 700 475 700 537.5 637.5 c 128,-1,14
 600 575 600 575 600 500 c 2,15,-1
 600 200 l 2,0,1
500 200 m 2,16,-1
 500 500 l 2,17,18
 500 538 500 538 469 569 c 128,-1,19
 438 600 438 600 400 600 c 2,20,-1
 300 600 l 2,21,22
 263 600 263 600 231.5 569 c 128,-1,23
 200 538 200 538 200 500 c 2,24,-1
 200 200 l 2,25,26
 200 163 200 163 231.5 131.5 c 128,-1,27
 263 100 263 100 300 100 c 2,28,-1
 400 100 l 2,29,30
 438 100 438 100 469 131.5 c 128,-1,31
 500 163 500 163 500 200 c 2,16,-1
EndSplineSet
EndChar

StartChar: P
Encoding: 80 80 51
Width: 600
Flags: W
LayerCount: 2
Fore
SplineSet
200 300 m 1,0,-1
 200 0 l 1,1,-1
 100 0 l 1,2,-1
 100 700 l 1,3,-1
 400 700 l 2,4,5
 475 700 475 700 537.5 637.5 c 128,-1,6
 600 575 600 575 600 500 c 0,7,8
 600 401 600 401 538 347 c 0,9,10
 483 300 483 300 400 300 c 2,11,12
 400 300 400 300 200 300 c 1,0,-1
500 500 m 256,13,14
 500 538 500 538 469 569 c 128,-1,15
 438 600 438 600 400 600 c 2,16,-1
 200 600 l 1,17,-1
 200 400 l 1,18,-1
 400 400 l 2,19,20
 438 400 438 400 469 431 c 128,-1,21
 500 462 500 462 500 500 c 256,13,14
EndSplineSet
EndChar

StartChar: Q
Encoding: 81 81 52
Width: 600
Flags: W
LayerCount: 2
Fore
SplineSet
600 0 m 1,0,-1
 500 0 l 1,1,-1
 480 20 l 1,2,3
 440 0 440 0 400 0 c 2,4,-1
 300 0 l 2,5,6
 225 0 225 0 162.5 62.5 c 128,-1,7
 100 125 100 125 100 200 c 2,8,-1
 100 500 l 2,9,10
 100 575 100 575 162.5 637.5 c 128,-1,11
 225 700 225 700 300 700 c 2,12,-1
 400 700 l 2,13,14
 475 700 475 700 537.5 637.5 c 128,-1,15
 600 575 600 575 600 500 c 2,16,-1
 600 200 l 2,17,18
 600 143 600 143 561 89 c 1,19,-1
 600 50 l 1,20,-1
 600 0 l 1,0,-1
500 200 m 2,21,-1
 500 500 l 2,22,23
 500 538 500 538 469 569 c 128,-1,24
 438 600 438 600 400 600 c 2,25,-1
 300 600 l 2,26,27
 262 600 262 600 231 569 c 128,-1,28
 200 538 200 538 200 500 c 2,29,-1
 200 200 l 2,30,31
 200 162 200 162 231 131 c 128,-1,32
 262 100 262 100 300 100 c 2,33,-1
 400 100 l 1,34,-1
 300 200 l 1,35,-1
 350 300 l 1,36,-1
 490 160 l 1,37,38
 500 180 500 180 500 200 c 2,21,-1
EndSplineSet
EndChar

StartChar: R
Encoding: 82 82 53
Width: 600
Flags: W
LayerCount: 2
Fore
SplineSet
600 0 m 1,0,-1
 500 0 l 1,1,-1
 200 300 l 1,2,-1
 200 0 l 1,3,-1
 100 0 l 1,4,-1
 100 700 l 1,5,-1
 400 700 l 2,6,7
 475 700 475 700 537.5 637.5 c 128,-1,8
 600 575 600 575 600 500 c 0,9,10
 600 401 600 401 538 347 c 0,11,12
 483 300 483 300 400 300 c 0,13,14
 386 300 386 300 350 300 c 1,15,-1
 600 50 l 1,16,-1
 600 0 l 1,0,-1
500 500 m 256,17,18
 500 538 500 538 469 569 c 128,-1,19
 438 600 438 600 400 600 c 2,20,-1
 200 600 l 1,21,-1
 200 400 l 1,22,-1
 400 400 l 2,23,24
 438 400 438 400 469 431 c 128,-1,25
 500 462 500 462 500 500 c 256,17,18
EndSplineSet
EndChar

StartChar: S
Encoding: 83 83 54
Width: 600
Flags: W
LayerCount: 2
Fore
SplineSet
600 200 m 256,0,1
 600 125 600 125 537.5 62.5 c 128,-1,2
 475 0 475 0 400 0 c 2,3,-1
 300 0 l 2,4,5
 225 0 225 0 162.5 62.5 c 128,-1,6
 100 125 100 125 100 200 c 1,7,-1
 200 200 l 1,8,9
 200 163 200 163 231.5 131.5 c 128,-1,10
 263 100 263 100 300 100 c 2,11,-1
 400 100 l 2,12,13
 438 100 438 100 469 131.5 c 128,-1,14
 500 163 500 163 500 200 c 0,15,16
 500 238 500 238 469 269 c 128,-1,17
 438 300 438 300 400 300 c 2,18,-1
 300 300 l 2,19,20
 225 300 225 300 162.5 362.5 c 128,-1,21
 100 425 100 425 100 500 c 256,22,23
 100 575 100 575 162.5 637.5 c 128,-1,24
 225 700 225 700 300 700 c 2,25,-1
 400 700 l 2,26,27
 475 700 475 700 537.5 637.5 c 128,-1,28
 600 575 600 575 600 500 c 1,29,-1
 500 500 l 1,30,31
 500 538 500 538 469 569 c 128,-1,32
 438 600 438 600 400 600 c 2,33,-1
 300 600 l 2,34,35
 263 600 263 600 231.5 569 c 128,-1,36
 200 538 200 538 200 500 c 0,37,38
 200 463 200 463 231.5 431.5 c 128,-1,39
 263 400 263 400 300 400 c 2,40,-1
 400 400 l 2,41,42
 475 400 475 400 537.5 337.5 c 128,-1,43
 600 275 600 275 600 200 c 256,0,1
EndSplineSet
EndChar

StartChar: T
Encoding: 84 84 55
Width: 600
Flags: W
LayerCount: 2
Fore
SplineSet
600 600 m 1,0,-1
 400 600 l 1,1,-1
 400 0 l 1,2,-1
 300 0 l 1,3,-1
 300 600 l 1,4,-1
 100 600 l 1,5,-1
 100 700 l 1,6,-1
 600 700 l 1,7,-1
 600 600 l 1,0,-1
EndSplineSet
EndChar

StartChar: U
Encoding: 85 85 56
Width: 600
Flags: W
LayerCount: 2
Fore
SplineSet
600 200 m 2,0,1
 600 125 600 125 537.5 62.5 c 128,-1,2
 475 0 475 0 400 0 c 2,3,-1
 300 0 l 2,4,5
 225 0 225 0 162.5 62.5 c 128,-1,6
 100 125 100 125 100 200 c 2,7,-1
 100 700 l 1,8,-1
 200 700 l 1,9,-1
 200 200 l 2,10,11
 200 163 200 163 231.5 131.5 c 128,-1,12
 263 100 263 100 300 100 c 2,13,-1
 400 100 l 2,14,15
 438 100 438 100 469 131.5 c 128,-1,16
 500 163 500 163 500 200 c 2,17,-1
 500 700 l 1,18,-1
 600 700 l 1,19,-1
 600 200 l 2,0,1
EndSplineSet
EndChar

StartChar: V
Encoding: 86 86 57
Width: 600
Flags: W
LayerCount: 2
Fore
SplineSet
600 400 m 1,0,-1
 400 0 l 1,1,-1
 300 0 l 1,2,-1
 100 400 l 1,3,-1
 100 700 l 1,4,-1
 200 700 l 1,5,-1
 200 425 l 1,6,-1
 350 125 l 1,7,-1
 500 425 l 1,8,-1
 500 700 l 1,9,-1
 600 700 l 1,10,-1
 600 400 l 1,0,-1
EndSplineSet
EndChar

StartChar: W
Encoding: 87 87 58
Width: 600
Flags: W
LayerCount: 2
Fore
SplineSet
600 150 m 2,0,1
 600 94 600 94 553 47 c 128,-1,2
 506 0 506 0 450 0 c 0,3,4
 396 0 396 0 350 44 c 1,5,6
 304 0 304 0 250 0 c 0,7,8
 194 0 194 0 147 47 c 128,-1,9
 100 94 100 94 100 150 c 2,10,-1
 100 700 l 1,11,-1
 200 700 l 1,12,-1
 200 150 l 2,13,14
 200 131 200 131 215.5 115.5 c 128,-1,15
 231 100 231 100 250 100 c 256,16,17
 269 100 269 100 284.5 115.5 c 128,-1,18
 300 131 300 131 300 150 c 2,19,-1
 300 400 l 1,20,-1
 400 400 l 1,21,-1
 400 150 l 2,22,23
 400 131 400 131 415.5 115.5 c 128,-1,24
 431 100 431 100 450 100 c 256,25,26
 469 100 469 100 484.5 115.5 c 128,-1,27
 500 131 500 131 500 150 c 2,28,-1
 500 700 l 1,29,-1
 600 700 l 1,30,-1
 600 150 l 2,0,1
EndSplineSet
EndChar

StartChar: X
Encoding: 88 88 59
Width: 600
Flags: W
LayerCount: 2
Fore
SplineSet
600 0 m 1,0,-1
 500 0 l 1,1,-1
 500 150 l 1,2,-1
 350 300 l 1,3,-1
 200 150 l 1,4,-1
 200 0 l 1,5,-1
 100 0 l 1,6,-1
 100 200 l 1,7,-1
 250 350 l 1,8,-1
 100 500 l 1,9,-1
 100 700 l 1,10,-1
 200 700 l 1,11,-1
 200 550 l 1,12,-1
 350 400 l 1,13,-1
 500 550 l 1,14,-1
 500 700 l 1,15,-1
 600 700 l 1,16,-1
 600 500 l 1,17,-1
 450 350 l 1,18,-1
 600 200 l 1,19,-1
 600 0 l 1,0,-1
EndSplineSet
EndChar

StartChar: Y
Encoding: 89 89 60
Width: 600
Flags: W
LayerCount: 2
Fore
SplineSet
600 500 m 1,0,-1
 400 300 l 1,1,-1
 400 0 l 1,2,-1
 300 0 l 1,3,-1
 300 300 l 1,4,-1
 100 500 l 1,5,-1
 100 700 l 1,6,-1
 200 700 l 1,7,-1
 200 550 l 1,8,-1
 350 400 l 1,9,-1
 500 550 l 1,10,-1
 500 700 l 1,11,-1
 600 700 l 1,12,-1
 600 500 l 1,0,-1
EndSplineSet
EndChar

StartChar: Z
Encoding: 90 90 61
Width: 600
Flags: W
LayerCount: 2
Fore
SplineSet
600 0 m 1,0,-1
 100 0 l 1,1,-1
 100 175 l 1,2,-1
 500 575 l 1,3,-1
 500 600 l 1,4,-1
 100 600 l 1,5,-1
 100 700 l 1,6,-1
 600 700 l 1,7,-1
 600 525 l 1,8,-1
 200 125 l 1,9,-1
 200 100 l 1,10,-1
 600 100 l 1,11,-1
 600 0 l 1,0,-1
EndSplineSet
EndChar

StartChar: bracketleft
Encoding: 91 91 62
Width: 600
Flags: W
LayerCount: 2
Fore
SplineSet
600 300 m 1,0,-1
 300 300 l 1,1,-1
 425 175 l 1,2,-1
 425 100 l 1,3,-1
 350 100 l 1,4,-1
 100 350 l 1,5,-1
 350 600 l 1,6,-1
 425 600 l 1,7,-1
 425 525 l 1,8,-1
 300 400 l 1,9,-1
 600 400 l 1,10,-1
 600 300 l 1,0,-1
EndSplineSet
EndChar

StartChar: backslash
Encoding: 92 92 63
Width: 600
Flags: W
LayerCount: 2
Fore
SplineSet
600 100 m 1,0,-1
 525 100 l 1,1,-1
 100 525 l 1,2,-1
 100 600 l 1,3,-1
 175 600 l 1,4,-1
 600 175 l 1,5,-1
 600 100 l 1,0,-1
EndSplineSet
EndChar

StartChar: bracketright
Encoding: 93 93 64
Width: 600
Flags: W
LayerCount: 2
Fore
SplineSet
600 350 m 1,0,-1
 350 100 l 1,1,-1
 275 100 l 1,2,-1
 275 175 l 1,3,-1
 400 300 l 1,4,-1
 100 300 l 1,5,-1
 100 400 l 1,6,-1
 400 400 l 1,7,-1
 275 525 l 1,8,-1
 275 600 l 1,9,-1
 350 600 l 1,10,-1
 600 350 l 1,0,-1
EndSplineSet
EndChar

StartChar: asciicircum
Encoding: 94 94 65
Width: 600
Flags: W
LayerCount: 2
Fore
SplineSet
600 350 m 1,0,-1
 600 275 l 1,1,-1
 525 275 l 1,2,-1
 400 400 l 1,3,-1
 400 100 l 1,4,-1
 300 100 l 1,5,-1
 300 400 l 1,6,-1
 175 275 l 1,7,-1
 100 275 l 1,8,-1
 100 350 l 1,9,-1
 350 600 l 1,10,-1
 600 350 l 1,0,-1
EndSplineSet
EndChar

StartChar: underscore
Encoding: 95 95 66
Width: 600
Flags: W
LayerCount: 2
Fore
SplineSet
600 -100 m 1,0,-1
 100 -100 l 1,1,-1
 100 0 l 1,2,-1
 600 0 l 1,3,-1
 600 -100 l 1,0,-1
EndSplineSet
EndChar

StartChar: grave
Encoding: 96 96 67
Width: 600
Flags: W
LayerCount: 2
Fore
SplineSet
600 400 m 1,0,-1
 100 400 l 1,1,-1
 100 500 l 1,2,-1
 600 500 l 1,3,-1
 600 400 l 1,0,-1
EndSplineSet
EndChar

StartChar: a
Encoding: 97 97 68
Width: 600
Flags: W
LayerCount: 2
Fore
SplineSet
600 0 m 1,0,-1
 250 0 l 2,1,2
 194 0 194 0 147 47 c 128,-1,3
 100 94 100 94 100 150 c 256,4,5
 100 206 100 206 147 253 c 128,-1,6
 194 300 194 300 250 300 c 2,7,-1
 500 300 l 1,8,9
 500 337 500 337 469 367.5 c 128,-1,10
 438 398 438 398 400 400 c 1,11,12
 400 398 400 398 200 400 c 1,13,-1
 200 500 l 1,14,-1
 400 500 l 2,15,16
 475 500 475 500 537.5 437.5 c 128,-1,17
 600 375 600 375 600 300 c 2,18,-1
 600 0 l 1,0,-1
500 100 m 1,19,-1
 500 200 l 1,20,-1
 250 200 l 2,21,22
 230 200 230 200 215 184.5 c 128,-1,23
 200 169 200 169 200 150 c 256,24,25
 200 131 200 131 215 115.5 c 128,-1,26
 230 100 230 100 250 100 c 2,27,-1
 500 100 l 1,19,-1
EndSplineSet
EndChar

StartChar: b
Encoding: 98 98 69
Width: 600
Flags: W
LayerCount: 2
Fore
SplineSet
600 300 m 2,0,-1
 600 200 l 2,1,2
 600 125 600 125 537.5 62.5 c 128,-1,3
 475 0 475 0 400 0 c 2,4,-1
 100 0 l 1,5,-1
 100 700 l 1,6,-1
 200 700 l 1,7,-1
 200 500 l 1,8,-1
 400 500 l 2,9,10
 475 500 475 500 537.5 437.5 c 128,-1,11
 600 375 600 375 600 300 c 2,0,-1
500 200 m 2,12,-1
 500 300 l 2,13,14
 500 337 500 337 469 367.5 c 128,-1,15
 438 398 438 398 400 400 c 2,16,-1
 200 400 l 1,17,-1
 200 100 l 1,18,-1
 400 100 l 2,19,20
 436 100 436 100 468 132 c 128,-1,21
 500 164 500 164 500 200 c 2,12,-1
EndSplineSet
EndChar

StartChar: c
Encoding: 99 99 70
Width: 600
Flags: W
LayerCount: 2
Fore
SplineSet
600 0 m 1,0,-1
 300 0 l 2,1,2
 225 0 225 0 162.5 62.5 c 128,-1,3
 100 125 100 125 100 200 c 2,4,-1
 100 300 l 2,5,6
 100 375 100 375 162.5 437.5 c 128,-1,7
 225 500 225 500 300 500 c 2,8,-1
 600 500 l 1,9,-1
 600 400 l 1,10,-1
 300 400 l 2,11,12
 262 398 262 398 231 367.5 c 128,-1,13
 200 337 200 337 200 300 c 2,14,-1
 200 200 l 2,15,16
 200 164 200 164 232 132 c 128,-1,17
 264 100 264 100 300 100 c 2,18,-1
 600 100 l 1,19,-1
 600 0 l 1,0,-1
EndSplineSet
EndChar

StartChar: d
Encoding: 100 100 71
Width: 600
Flags: W
LayerCount: 2
Fore
SplineSet
100 300 m 2,0,1
 100 375 100 375 162.5 437.5 c 128,-1,2
 225 500 225 500 300 500 c 2,3,-1
 500 500 l 1,4,-1
 500 700 l 1,5,-1
 600 700 l 1,6,-1
 600 0 l 1,7,-1
 300 0 l 2,8,9
 225 0 225 0 162.5 62.5 c 128,-1,10
 100 125 100 125 100 200 c 2,11,-1
 100 300 l 2,0,1
500 100 m 1,12,-1
 500 400 l 1,13,-1
 300 400 l 2,14,15
 262 398 262 398 231 367.5 c 128,-1,16
 200 337 200 337 200 300 c 2,17,-1
 200 200 l 2,18,19
 200 164 200 164 232 132 c 128,-1,20
 264 100 264 100 300 100 c 2,21,-1
 500 100 l 1,12,-1
EndSplineSet
EndChar

StartChar: e
Encoding: 101 101 72
Width: 600
Flags: W
LayerCount: 2
Fore
SplineSet
600 200 m 1,0,-1
 200 200 l 1,1,2
 200 164 200 164 232 132 c 128,-1,3
 264 100 264 100 300 100 c 2,4,-1
 500 100 l 1,5,-1
 500 0 l 1,6,-1
 300 0 l 2,7,8
 225 0 225 0 162.5 62.5 c 128,-1,9
 100 125 100 125 100 200 c 2,10,-1
 100 300 l 2,11,12
 100 375 100 375 162.5 437.5 c 128,-1,13
 225 500 225 500 300 500 c 2,14,-1
 400 500 l 2,15,16
 486 500 486 500 547 428 c 0,17,18
 600 365 600 365 600 300 c 2,19,-1
 600 200 l 1,0,-1
500 300 m 1,20,21
 500 338 500 338 469 369 c 128,-1,22
 438 400 438 400 400 400 c 2,23,-1
 300 400 l 2,24,25
 262 398 262 398 231 367.5 c 128,-1,26
 200 337 200 337 200 300 c 1,27,-1
 500 300 l 1,20,21
EndSplineSet
EndChar

StartChar: f
Encoding: 102 102 73
Width: 600
Flags: W
LayerCount: 2
Fore
SplineSet
500 300 m 1,0,-1
 400 300 l 1,1,-1
 400 0 l 1,2,-1
 300 0 l 1,3,-1
 300 300 l 1,4,-1
 200 300 l 1,5,-1
 200 400 l 1,6,-1
 300 400 l 1,7,-1
 300 500 l 2,8,9
 300 575 300 575 362.5 637.5 c 128,-1,10
 425 700 425 700 500 700 c 1,11,-1
 500 600 l 1,12,13
 463 600 463 600 431.5 569 c 128,-1,14
 400 538 400 538 400 500 c 2,15,-1
 400 400 l 1,16,-1
 500 400 l 1,17,-1
 500 300 l 1,0,-1
EndSplineSet
EndChar

StartChar: g
Encoding: 103 103 74
Width: 600
Flags: W
LayerCount: 2
Fore
SplineSet
600 0 m 2,0,1
 600 -75 600 -75 537.5 -137.5 c 128,-1,2
 475 -200 475 -200 400 -200 c 2,3,-1
 200 -200 l 1,4,-1
 200 -100 l 1,5,-1
 400 -100 l 2,6,7
 438 -100 438 -100 469 -69 c 128,-1,8
 500 -38 500 -38 500 0 c 1,9,-1
 300 0 l 2,10,11
 225 0 225 0 162.5 62.5 c 128,-1,12
 100 125 100 125 100 200 c 2,13,-1
 100 300 l 2,14,15
 100 375 100 375 162.5 437.5 c 128,-1,16
 225 500 225 500 300 500 c 2,17,-1
 600 500 l 1,18,-1
 600 0 l 2,0,1
500 100 m 1,19,-1
 500 400 l 1,20,-1
 300 400 l 2,21,22
 264 400 264 400 232 368 c 128,-1,23
 200 336 200 336 200 300 c 2,24,-1
 200 200 l 2,25,26
 200 163 200 163 231 132.5 c 128,-1,27
 262 102 262 102 300 100 c 2,28,-1
 500 100 l 1,19,-1
EndSplineSet
EndChar

StartChar: h
Encoding: 104 104 75
Width: 600
Flags: W
LayerCount: 2
Fore
SplineSet
600 0 m 1,0,-1
 500 0 l 1,1,-1
 500 300 l 2,2,3
 500 338 500 338 469 369 c 128,-1,4
 438 400 438 400 400 400 c 2,5,-1
 200 400 l 1,6,-1
 200 0 l 1,7,-1
 100 0 l 1,8,-1
 100 700 l 1,9,-1
 200 700 l 1,10,-1
 200 500 l 1,11,-1
 400 500 l 2,12,13
 475 500 475 500 537.5 437.5 c 128,-1,14
 600 375 600 375 600 300 c 2,15,-1
 600 0 l 1,0,-1
EndSplineSet
EndChar

StartChar: i
Encoding: 105 105 76
Width: 600
Flags: W
LayerCount: 2
Fore
SplineSet
400 600 m 1,0,-1
 300 600 l 1,1,-1
 300 700 l 1,2,-1
 400 700 l 1,3,-1
 400 600 l 1,0,-1
500 0 m 1,4,-1
 200 0 l 1,5,-1
 200 100 l 1,6,-1
 300 100 l 1,7,-1
 300 400 l 1,8,-1
 200 400 l 1,9,-1
 200 500 l 1,10,-1
 400 500 l 1,11,-1
 400 100 l 1,12,-1
 500 100 l 1,13,-1
 500 0 l 1,4,-1
EndSplineSet
EndChar

StartChar: j
Encoding: 106 106 77
Width: 600
Flags: W
LayerCount: 2
Fore
SplineSet
400 600 m 1,0,-1
 300 600 l 1,1,-1
 300 700 l 1,2,-1
 400 700 l 1,3,-1
 400 600 l 1,0,-1
400 0 m 2,4,5
 400 -92 400 -92 338 -148 c 0,6,7
 280 -200 280 -200 200 -200 c 1,8,-1
 200 -100 l 1,9,10
 238 -100 238 -100 269 -69 c 128,-1,11
 300 -38 300 -38 300 0 c 2,12,-1
 300 500 l 1,13,-1
 400 500 l 1,14,-1
 400 0 l 2,4,5
EndSplineSet
EndChar

StartChar: k
Encoding: 107 107 78
Width: 600
Flags: W
LayerCount: 2
Fore
SplineSet
600 0 m 1,0,-1
 500 0 l 1,1,-1
 300 200 l 1,2,-1
 300 0 l 1,3,-1
 200 0 l 1,4,-1
 200 700 l 1,5,-1
 300 700 l 1,6,-1
 300 300 l 1,7,-1
 500 500 l 1,8,-1
 600 500 l 1,9,-1
 600 450 l 1,10,-1
 400 250 l 1,11,-1
 600 50 l 1,12,-1
 600 0 l 1,0,-1
EndSplineSet
EndChar

StartChar: l
Encoding: 108 108 79
Width: 600
Flags: W
LayerCount: 2
Fore
SplineSet
500 0 m 1,0,-1
 200 0 l 1,1,-1
 200 100 l 1,2,-1
 300 100 l 1,3,-1
 300 600 l 1,4,-1
 200 600 l 1,5,-1
 200 700 l 1,6,-1
 400 700 l 1,7,-1
 400 100 l 1,8,-1
 500 100 l 1,9,-1
 500 0 l 1,0,-1
EndSplineSet
EndChar

StartChar: m
Encoding: 109 109 80
Width: 600
Flags: W
LayerCount: 2
Fore
SplineSet
600 0 m 1,0,-1
 500 0 l 1,1,-1
 500 350 l 2,2,3
 500 369 500 369 484.5 384.5 c 128,-1,4
 469 400 469 400 450 400 c 256,5,6
 431 400 431 400 415.5 384.5 c 128,-1,7
 400 369 400 369 400 350 c 2,8,-1
 400 0 l 1,9,-1
 300 0 l 1,10,-1
 300 350 l 2,11,12
 300 369 300 369 284.5 384.5 c 128,-1,13
 269 400 269 400 250 400 c 256,14,15
 231 400 231 400 215.5 384.5 c 128,-1,16
 200 369 200 369 200 350 c 2,17,-1
 200 0 l 1,18,-1
 100 0 l 1,19,-1
 100 500 l 1,20,-1
 200 500 l 1,21,-1
 200 489 l 1,22,23
 225 500 225 500 250 500 c 0,24,25
 304 500 304 500 350 456 c 1,26,27
 396 500 396 500 450 500 c 0,28,29
 506 500 506 500 553 453 c 128,-1,30
 600 406 600 406 600 350 c 2,31,-1
 600 0 l 1,0,-1
EndSplineSet
EndChar

StartChar: n
Encoding: 110 110 81
Width: 600
Flags: W
LayerCount: 2
Fore
SplineSet
600 0 m 1,0,-1
 500 0 l 1,1,-1
 500 300 l 2,2,3
 500 338 500 338 469 369 c 128,-1,4
 438 400 438 400 400 400 c 2,5,-1
 200 400 l 1,6,-1
 200 0 l 1,7,-1
 100 0 l 1,8,-1
 100 500 l 1,9,-1
 400 500 l 2,10,11
 475 500 475 500 537.5 437.5 c 128,-1,12
 600 375 600 375 600 300 c 2,13,-1
 600 0 l 1,0,-1
EndSplineSet
EndChar

StartChar: o
Encoding: 111 111 82
Width: 600
Flags: W
LayerCount: 2
Fore
SplineSet
600 200 m 2,0,1
 600 125 600 125 537.5 62.5 c 128,-1,2
 475 0 475 0 400 0 c 2,3,-1
 300 0 l 2,4,5
 225 0 225 0 162.5 62.5 c 128,-1,6
 100 125 100 125 100 200 c 2,7,-1
 100 300 l 2,8,9
 100 375 100 375 162.5 437.5 c 128,-1,10
 225 500 225 500 300 500 c 2,11,-1
 400 500 l 2,12,13
 475 500 475 500 537.5 437.5 c 128,-1,14
 600 375 600 375 600 300 c 2,15,-1
 600 200 l 2,0,1
500 200 m 2,16,-1
 500 300 l 2,17,18
 500 338 500 338 469 369 c 128,-1,19
 438 400 438 400 400 400 c 2,20,-1
 300 400 l 2,21,22
 263 400 263 400 231.5 369 c 128,-1,23
 200 338 200 338 200 300 c 2,24,-1
 200 200 l 2,25,26
 200 163 200 163 231.5 131.5 c 128,-1,27
 263 100 263 100 300 100 c 2,28,-1
 400 100 l 2,29,30
 438 100 438 100 469 131.5 c 128,-1,31
 500 163 500 163 500 200 c 2,16,-1
EndSplineSet
EndChar

StartChar: p
Encoding: 112 112 83
Width: 600
Flags: W
LayerCount: 2
Fore
SplineSet
600 200 m 2,0,1
 600 125 600 125 537.5 62.5 c 128,-1,2
 475 0 475 0 400 0 c 2,3,-1
 200 0 l 1,4,-1
 200 -200 l 1,5,-1
 100 -200 l 1,6,-1
 100 500 l 1,7,-1
 400 500 l 2,8,9
 475 500 475 500 537.5 437.5 c 128,-1,10
 600 375 600 375 600 300 c 2,11,-1
 600 200 l 2,0,1
500 200 m 2,12,-1
 500 300 l 2,13,14
 500 336 500 336 468 368 c 128,-1,15
 436 400 436 400 400 400 c 2,16,-1
 200 400 l 1,17,-1
 200 100 l 1,18,-1
 400 100 l 2,19,20
 438 102 438 102 469 132.5 c 128,-1,21
 500 163 500 163 500 200 c 2,12,-1
EndSplineSet
EndChar

StartChar: q
Encoding: 113 113 84
Width: 600
Flags: W
LayerCount: 2
Fore
SplineSet
100 200 m 2,0,-1
 100 300 l 2,1,2
 100 375 100 375 162.5 437.5 c 128,-1,3
 225 500 225 500 300 500 c 2,4,-1
 600 500 l 1,5,-1
 600 -200 l 1,6,-1
 500 -200 l 1,7,-1
 500 0 l 1,8,-1
 300 0 l 2,9,10
 225 0 225 0 162.5 62.5 c 128,-1,11
 100 125 100 125 100 200 c 2,0,-1
500 100 m 1,12,-1
 500 400 l 1,13,-1
 300 400 l 2,14,15
 264 400 264 400 232 368 c 128,-1,16
 200 336 200 336 200 300 c 2,17,-1
 200 200 l 2,18,19
 200 163 200 163 231 132.5 c 128,-1,20
 262 102 262 102 300 100 c 2,21,-1
 500 100 l 1,12,-1
EndSplineSet
EndChar

StartChar: r
Encoding: 114 114 85
Width: 600
Flags: W
LayerCount: 2
Fore
SplineSet
600 400 m 1,0,-1
 500 400 l 2,1,2
 425 400 425 400 362.5 337.5 c 128,-1,3
 300 275 300 275 300 200 c 2,4,-1
 300 0 l 1,5,-1
 200 0 l 1,6,-1
 200 500 l 1,7,-1
 300 500 l 1,8,-1
 300 412 l 1,9,10
 392 500 392 500 500 500 c 2,11,-1
 600 500 l 1,12,-1
 600 400 l 1,0,-1
EndSplineSet
EndChar

StartChar: s
Encoding: 115 115 86
Width: 600
Flags: W
LayerCount: 2
Fore
SplineSet
600 150 m 256,0,1
 600 94 600 94 553 47 c 128,-1,2
 506 0 506 0 450 0 c 2,3,-1
 100 0 l 1,4,-1
 100 100 l 1,5,-1
 450 100 l 2,6,7
 468 100 468 100 485 115.5 c 128,-1,8
 502 131 502 131 502 149 c 0,9,10
 502 168 502 168 485.5 184 c 128,-1,11
 469 200 469 200 450 200 c 2,12,-1
 250 200 l 2,13,14
 194 200 194 200 147 247 c 128,-1,15
 100 294 100 294 100 350 c 256,16,17
 100 406 100 406 147 453 c 128,-1,18
 194 500 194 500 250 500 c 2,19,-1
 600 500 l 1,20,-1
 600 400 l 1,21,-1
 250 400 l 2,22,23
 232 400 232 400 215 384.5 c 128,-1,24
 198 369 198 369 198 351 c 0,25,26
 198 332 198 332 215 316 c 128,-1,27
 232 300 232 300 250 300 c 2,28,-1
 450 300 l 2,29,30
 506 300 506 300 553 253 c 128,-1,31
 600 206 600 206 600 150 c 256,0,1
EndSplineSet
EndChar

StartChar: t
Encoding: 116 116 87
Width: 600
Flags: W
LayerCount: 2
Fore
SplineSet
500 0 m 1,0,1
 425 0 425 0 362.5 62.5 c 128,-1,2
 300 125 300 125 300 200 c 2,3,-1
 300 400 l 1,4,-1
 200 400 l 1,5,-1
 200 500 l 1,6,-1
 300 500 l 1,7,-1
 300 700 l 1,8,-1
 400 700 l 1,9,-1
 400 500 l 1,10,-1
 500 500 l 1,11,-1
 500 400 l 1,12,-1
 400 400 l 1,13,-1
 400 200 l 2,14,15
 400 163 400 163 431.5 131.5 c 128,-1,16
 463 100 463 100 500 100 c 1,17,-1
 500 0 l 1,0,1
EndSplineSet
EndChar

StartChar: u
Encoding: 117 117 88
Width: 600
Flags: W
LayerCount: 2
Fore
SplineSet
600 0 m 1,0,-1
 300 0 l 2,1,2
 225 0 225 0 162.5 62.5 c 128,-1,3
 100 125 100 125 100 200 c 2,4,-1
 100 500 l 1,5,-1
 200 500 l 1,6,-1
 200 200 l 2,7,8
 200 163 200 163 231.5 131.5 c 128,-1,9
 263 100 263 100 300 100 c 2,10,-1
 500 100 l 1,11,-1
 500 500 l 1,12,-1
 600 500 l 1,13,-1
 600 0 l 1,0,-1
EndSplineSet
EndChar

StartChar: v
Encoding: 118 118 89
Width: 600
Flags: W
LayerCount: 2
Fore
SplineSet
600 400 m 1,0,-1
 400 0 l 1,1,-1
 300 0 l 1,2,-1
 100 400 l 1,3,-1
 100 500 l 1,4,-1
 200 500 l 1,5,-1
 200 425 l 1,6,-1
 350 125 l 1,7,-1
 500 425 l 1,8,-1
 500 500 l 1,9,-1
 600 500 l 1,10,-1
 600 400 l 1,0,-1
EndSplineSet
EndChar

StartChar: w
Encoding: 119 119 90
Width: 600
Flags: W
LayerCount: 2
Fore
SplineSet
600 150 m 2,0,1
 600 94 600 94 553 47 c 128,-1,2
 506 0 506 0 450 0 c 0,3,4
 396 0 396 0 350 44 c 1,5,6
 304 0 304 0 250 0 c 0,7,8
 194 0 194 0 147 47 c 128,-1,9
 100 94 100 94 100 150 c 2,10,-1
 100 500 l 1,11,-1
 200 500 l 1,12,-1
 200 150 l 2,13,14
 200 131 200 131 215.5 115.5 c 128,-1,15
 231 100 231 100 250 100 c 256,16,17
 269 100 269 100 284.5 115.5 c 128,-1,18
 300 131 300 131 300 150 c 2,19,-1
 300 300 l 1,20,-1
 400 300 l 1,21,-1
 400 150 l 2,22,23
 400 131 400 131 415.5 115.5 c 128,-1,24
 431 100 431 100 450 100 c 256,25,26
 469 100 469 100 484.5 115.5 c 128,-1,27
 500 131 500 131 500 150 c 2,28,-1
 500 500 l 1,29,-1
 600 500 l 1,30,-1
 600 150 l 2,0,1
EndSplineSet
EndChar

StartChar: x
Encoding: 120 120 91
Width: 600
Flags: W
LayerCount: 2
Fore
SplineSet
600 0 m 1,0,-1
 525 0 l 1,1,-1
 350 175 l 1,2,-1
 175 0 l 1,3,-1
 100 0 l 1,4,-1
 100 75 l 1,5,-1
 275 250 l 1,6,-1
 100 425 l 1,7,-1
 100 500 l 1,8,-1
 175 500 l 1,9,-1
 350 325 l 1,10,-1
 525 500 l 1,11,-1
 600 500 l 1,12,-1
 600 425 l 1,13,-1
 425 250 l 1,14,-1
 600 75 l 1,15,-1
 600 0 l 1,0,-1
EndSplineSet
EndChar

StartChar: y
Encoding: 121 121 92
Width: 600
Flags: W
LayerCount: 2
Fore
SplineSet
600 0 m 2,0,1
 600 -75 600 -75 537.5 -137.5 c 128,-1,2
 475 -200 475 -200 400 -200 c 2,3,-1
 200 -200 l 1,4,-1
 200 -100 l 1,5,-1
 400 -100 l 2,6,7
 438 -100 438 -100 468.5 -69 c 128,-1,8
 499 -38 499 -38 500 0 c 1,9,-1
 300 0 l 2,10,11
 225 0 225 0 162.5 62.5 c 128,-1,12
 100 125 100 125 100 200 c 2,13,-1
 100 500 l 1,14,-1
 200 500 l 1,15,-1
 200 200 l 2,16,17
 200 162 200 162 231 131 c 128,-1,18
 262 100 262 100 300 100 c 2,19,-1
 500 100 l 1,20,-1
 500 500 l 1,21,-1
 600 500 l 1,22,-1
 600 0 l 2,0,1
EndSplineSet
EndChar

StartChar: z
Encoding: 122 122 93
Width: 600
Flags: W
LayerCount: 2
Fore
SplineSet
600 0 m 1,0,-1
 100 0 l 1,1,-1
 100 75 l 1,2,-1
 425 400 l 1,3,-1
 100 400 l 1,4,-1
 100 500 l 1,5,-1
 600 500 l 1,6,-1
 600 425 l 1,7,-1
 275 100 l 1,8,-1
 600 100 l 1,9,-1
 600 0 l 1,0,-1
EndSplineSet
EndChar

StartChar: braceleft
Encoding: 123 123 94
Width: 600
Flags: W
LayerCount: 2
Fore
SplineSet
500 0 m 1,0,-1
 200 0 l 1,1,-1
 200 700 l 1,2,-1
 500 700 l 1,3,-1
 500 600 l 1,4,-1
 325 600 l 1,5,-1
 325 100 l 1,6,-1
 500 100 l 1,7,-1
 500 0 l 1,0,-1
EndSplineSet
EndChar

StartChar: bar
Encoding: 124 124 95
Width: 600
Flags: W
LayerCount: 2
Fore
SplineSet
500 0 m 1,0,-1
 400 0 l 1,1,-1
 400 700 l 1,2,-1
 500 700 l 1,3,-1
 500 0 l 1,0,-1
300 0 m 1,4,-1
 200 0 l 1,5,-1
 200 700 l 1,6,-1
 300 700 l 1,7,-1
 300 0 l 1,4,-1
EndSplineSet
EndChar

StartChar: braceright
Encoding: 125 125 96
Width: 600
Flags: W
LayerCount: 2
Fore
SplineSet
500 0 m 1,0,-1
 200 0 l 1,1,-1
 200 100 l 1,2,-1
 375 100 l 1,3,-1
 375 600 l 1,4,-1
 200 600 l 1,5,-1
 200 700 l 1,6,-1
 500 700 l 1,7,-1
 500 0 l 1,0,-1
EndSplineSet
EndChar

StartChar: sterling
Encoding: 163 163 97
Width: 600
Flags: W
LayerCount: 2
Fore
SplineSet
600 -100 m 1,0,-1
 100 -100 l 1,1,-1
 100 0 l 1,2,-1
 200 0 l 1,3,-1
 200 200 l 1,4,-1
 100 200 l 1,5,-1
 100 300 l 1,6,-1
 200 300 l 1,7,-1
 200 500 l 2,8,9
 200 575 200 575 262.5 637.5 c 128,-1,10
 325 700 325 700 400 700 c 256,11,12
 475 700 475 700 537.5 637.5 c 128,-1,13
 600 575 600 575 600 500 c 1,14,-1
 500 500 l 1,15,16
 500 538 500 538 469 569 c 128,-1,17
 438 600 438 600 400 600 c 0,18,19
 363 600 363 600 331.5 569 c 128,-1,20
 300 538 300 538 300 500 c 2,21,-1
 300 300 l 1,22,-1
 400 300 l 1,23,-1
 400 200 l 1,24,-1
 300 200 l 1,25,-1
 300 0 l 1,26,-1
 600 0 l 1,27,-1
 600 -100 l 1,0,-1
EndSplineSet
EndChar

StartChar: onequarter
Encoding: 188 188 98
Width: 600
Flags: W
LayerCount: 2
Fore
SplineSet
300 200 m 1,0,-1
 200 200 l 1,1,-1
 200 700 l 1,2,-1
 300 700 l 1,3,-1
 300 200 l 1,0,-1
600 -200 m 1,4,-1
 500 -200 l 1,5,-1
 500 -100 l 1,6,-1
 300 -100 l 1,7,-1
 300 75 l 1,8,-1
 525 300 l 1,9,-1
 600 300 l 1,10,-1
 600 -200 l 1,4,-1
500 0 m 1,11,-1
 500 125 l 1,12,-1
 400 25 l 1,13,-1
 400 0 l 1,14,-1
 500 0 l 1,11,-1
EndSplineSet
EndChar

StartChar: onehalf
Encoding: 189 189 99
Width: 600
Flags: W
LayerCount: 2
Fore
SplineSet
200 200 m 1,0,-1
 100 200 l 1,1,-1
 100 700 l 1,2,-1
 200 700 l 1,3,-1
 200 200 l 1,0,-1
600 -200 m 1,4,-1
 300 -200 l 1,5,-1
 300 -125 l 2,6,7
 300 -81 300 -81 306 -62 c 0,8,9
 316 -34 316 -34 350 0 c 2,10,-1
 500 150 l 1,11,12
 500 169 500 169 484.5 184.5 c 128,-1,13
 469 200 469 200 450 200 c 2,14,-1
 300 200 l 1,15,-1
 300 300 l 1,16,-1
 450 300 l 2,17,18
 506 300 506 300 553 253 c 128,-1,19
 600 206 600 206 600 150 c 0,20,21
 600 100 600 100 550 50 c 2,22,-1
 400 -100 l 1,23,-1
 600 -100 l 1,24,-1
 600 -200 l 1,4,-1
EndSplineSet
EndChar

StartChar: threequarters
Encoding: 190 190 100
Width: 600
Flags: W
LayerCount: 2
Fore
SplineSet
400 350 m 0,0,1
 400 294 400 294 353 247 c 128,-1,2
 306 200 306 200 250 200 c 2,3,-1
 100 200 l 1,4,-1
 100 300 l 1,5,-1
 250 300 l 2,6,7
 269 300 269 300 284.5 315.5 c 128,-1,8
 300 331 300 331 300 350 c 256,9,10
 300 369 300 369 284.5 384.5 c 128,-1,11
 269 400 269 400 250 400 c 2,12,-1
 100 400 l 1,13,-1
 100 500 l 1,14,-1
 250 500 l 2,15,16
 269 500 269 500 284.5 515.5 c 128,-1,17
 300 531 300 531 300 550 c 256,18,19
 300 569 300 569 284.5 584.5 c 128,-1,20
 269 600 269 600 250 600 c 2,21,-1
 100 600 l 1,22,-1
 100 700 l 1,23,-1
 250 700 l 2,24,25
 306 700 306 700 353 653 c 128,-1,26
 400 606 400 606 400 550 c 0,27,28
 400 496 400 496 356 450 c 1,29,30
 400 404 400 404 400 350 c 0,0,1
600 -200 m 1,31,-1
 500 -200 l 1,32,-1
 500 -100 l 1,33,-1
 300 -100 l 1,34,-1
 300 75 l 1,35,-1
 525 300 l 1,36,-1
 600 300 l 1,37,-1
 600 -200 l 1,31,-1
500 0 m 1,38,-1
 500 125 l 1,39,-1
 400 25 l 1,40,-1
 400 0 l 1,41,-1
 500 0 l 1,38,-1
EndSplineSet
EndChar

StartChar: divide
Encoding: 247 247 101
Width: 600
Flags: W
LayerCount: 2
Fore
SplineSet
300 200 m 1,0,-1
 400 200 l 1,1,-1
 400 100 l 1,2,-1
 300 100 l 1,3,-1
 300 200 l 1,0,-1
100 400 m 1,4,-1
 600 400 l 1,5,-1
 600 300 l 1,6,-1
 100 300 l 1,7,-1
 100 400 l 1,4,-1
300 600 m 1,8,-1
 400 600 l 1,9,-1
 400 500 l 1,10,-1
 300 500 l 1,11,-1
 300 600 l 1,8,-1
EndSplineSet
EndChar

StartChar: DEL
Encoding: 65541 -1 105
Width: 600
Flags: W
LayerCount: 2
Fore
SplineSet
0 700 m 1,0,-1
 600 700 l 1,1,-1
 600 0 l 1,2,-1
 0 0 l 1,3,-1
 0 700 l 1,0,-1
EndSplineSet
EndChar
